<svg width="474" height="256" viewBox="0 0 474 256" fill="none" xmlns="http://www.w3.org/2000/svg">
<mask id="mask0_1124_39" style="mask-type:luminance" maskUnits="userSpaceOnUse" x="0" y="0" width="474" height="256">
<path d="M473.846 0H0V256H473.846V0Z" fill="white"/>
</mask>
<g mask="url(#mask0_1124_39)">
<path d="M129.693 64.5691C130.494 61.1583 134.346 45.7617 138.189 53.6625C138.068 53.5371 148.505 67.9748 141.246 106.208C141.367 105.803 135.793 122.256 132.29 111.373C132.411 111.778 129.688 104.165 129.688 104.165C129.688 104.165 127.748 102.267 127.529 106.208C127.427 105.938 135.141 153.454 145.103 131.934C145.103 132.078 150.557 124.727 151.547 98.8562C151.883 99.1215 154.27 60.8559 147.69 41.1323C147.69 41.2766 141.572 20.1611 134.434 32.9614C130.885 39.311 128.827 46.3859 128.418 53.6487C127.917 57.265 127.616 60.9059 127.516 64.5549C127.464 64.4296 128.902 67.989 129.693 64.5691Z" fill="#0129AC"/>
<path d="M174.194 59.562C175.124 55.2392 179.507 35.7155 183.923 45.7334C183.783 45.5797 195.737 63.8796 187.427 112.368C187.562 111.875 181.201 132.692 177.19 118.915C177.325 119.413 174.217 109.776 174.217 109.776C174.217 109.776 171.997 107.366 171.737 112.364C171.62 112.028 180.457 172.27 191.861 144.98C191.861 145.162 198.105 135.842 199.259 103.039C199.645 103.374 202.372 54.8623 194.844 29.8527C194.844 30.0388 187.836 3.26564 179.661 19.4953C175.557 27.6588 173.211 36.593 172.774 45.7197C172.199 50.3073 171.854 54.9209 171.742 59.5435C171.625 59.3759 173.254 63.8843 174.194 59.562Z" fill="#0129AC"/>
<path d="M208.491 27.6902C208.491 27.6902 213.111 -1.62667 227.461 0.479361C225.417 0.416469 236.181 -1.80975 244.834 36.9056C249.029 59.1105 250.008 81.803 247.743 104.287C247.386 103.795 246.716 131.486 236.554 148.561C236.557 148.705 224.914 167.601 213.479 138.543C212.229 135.546 211.141 132.484 210.219 129.37C210.219 129.37 221.528 141.133 226.791 129.088C226.882 129.254 235.059 114.522 235.39 85.5287C235.47 85.8811 235.904 39.1284 224.63 25.2615C223.373 24.518 221.976 24.0407 220.526 23.8594C219.076 23.678 217.605 23.7965 216.203 24.2074C214.801 24.6179 213.498 25.3128 212.376 26.2475C211.254 27.1827 210.335 28.3385 209.678 29.6433C209.249 29.0126 208.853 28.3609 208.491 27.6902Z" fill="#0129AC"/>
<path d="M286.052 122.889C286.052 122.889 272.266 118.087 275.146 98.0751C275.313 96.679 281.008 81.0033 301.56 88.4018C301.062 88.4018 312.262 73.4468 326.565 73.6096C326.682 73.6096 342.957 72.6189 348.475 92.6173C348.174 92.9059 369.441 75.2664 385.31 99.3545C385.353 99.4243 385.349 110.173 385.31 107.479V113.341C385.31 113.341 384.5 122.675 369.574 122.885H368.687C360.562 122.75 286.052 122.889 286.052 122.889Z" fill="#0129AC"/>
<path d="M251.664 122.28C251.497 122.387 275.622 122.28 275.622 122.28C271.259 118.096 268.459 112.545 267.688 106.55C266.917 100.554 268.221 94.4751 271.384 89.3231C271.686 89.0207 278.53 75.495 298.236 81.0411C298.147 80.6362 312.264 64.0624 327.316 65.4865C332.713 65.3594 338.007 67.0075 342.375 70.178C346.747 73.3489 349.957 77.8664 351.512 83.0373C351.12 82.7345 370.052 69.5435 385.478 90.4819C385.68 90.5844 381.515 57.9485 348.595 65.477C345.3 58.9827 340.204 53.5731 333.923 49.8939C327.638 46.2143 320.428 44.4197 313.152 44.7247C301.978 46.3896 291.919 52.4127 285.174 61.4756C285.583 61.1732 266.283 56.6226 256.289 66.9847C256.626 78.0292 256.127 89.0836 254.799 100.053C254.93 99.774 251.855 122.173 251.664 122.28Z" fill="#0129AC"/>
<path d="M248.113 26.6171C252.11 37.2751 254.501 48.4687 255.205 59.8298C258.646 56.4099 262.933 53.9649 267.629 52.7454C272.324 51.5254 277.26 51.575 281.93 52.8875C282.396 52.8875 317.041 12.7747 352.024 57.1452C352.416 57.2939 378.478 51.6917 385.943 76.9063C385.62 76.9063 390.897 32.0611 330.721 31.0841C330.549 31.4236 308.075 -11.5508 265.166 23.1041C262.243 22.3563 259.188 22.2852 256.234 22.8961C253.279 23.5073 250.504 24.785 248.118 26.6313L248.113 26.6171Z" fill="#0129AC"/>
<path d="M203.286 39.7715C208.998 36.1625 215.541 34.0798 222.288 33.7227C230.718 61.9415 231.13 91.9488 223.479 120.389C223.6 120.728 204.203 120.389 204.203 120.389C204.203 120.389 209.381 79.2424 204.203 46.8719L203.286 39.7715Z" fill="#0129AC"/>
<path d="M157.633 66.695L173.695 65.4755C175.406 61.1799 177.759 57.1682 180.674 53.5781C180.776 53.5781 191.008 75.1958 180.674 113.894C178.752 112.415 177.145 110.567 175.947 108.459C174.749 106.35 173.982 104.023 173.695 101.615C173.695 101.322 156.945 101.615 156.945 101.615L157.647 95.7478C157.647 95.7478 172.205 97.5067 171.224 92.6256C171.135 92.5235 172.085 88.1262 158.405 89.8105V84.5388C158.405 84.5388 171.974 87.512 172.006 80.5326C172.006 80.4305 172.662 72.9761 158.405 75.8472C158.305 72.7853 158.046 69.7307 157.633 66.695Z" fill="#0129AC"/>
<path d="M24.7019 76.1761L136.479 67.8477C137.388 70.3728 137.829 73.0419 137.782 75.7251C137.875 75.86 24.7019 76.1761 24.7019 76.1761Z" fill="#0129AC"/>
<path d="M38.601 90.6719L137.685 85.6836C137.755 87.2141 137.475 88.7399 136.866 90.1459C136.806 90.304 38.601 90.6719 38.601 90.6719Z" fill="#0129AC"/>
<path d="M67.8462 101.473L136.71 96.9219L135.491 101.956L67.8462 101.473Z" fill="#0129AC"/>
<path d="M67.6643 242.589C64.203 246.836 59.8294 250.247 54.8687 252.57C49.6939 254.911 44.0667 256.082 38.3879 255.999C33.1769 256.045 28.0107 255.036 23.2007 253.031C18.6656 251.15 14.5405 248.403 11.0565 244.944C7.5987 241.464 4.85211 237.344 2.96965 232.814C0.96959 228.033 -0.0401331 222.897 0.00122074 217.715C-0.0401331 212.533 0.96959 207.397 2.96965 202.616C4.85211 198.086 7.5987 193.966 11.0565 190.486C14.5405 187.027 18.6656 184.28 23.2007 182.399C28.012 180.401 33.1782 179.397 38.3879 179.449C43.7187 179.34 49.0094 180.388 53.896 182.52C58.4454 184.622 62.5067 187.649 65.8214 191.407L56.0968 200.825C53.9886 198.356 51.4368 196.305 48.573 194.776C45.4487 193.207 41.9853 192.434 38.4904 192.524C35.1981 192.502 31.9315 193.11 28.8679 194.315C25.943 195.46 23.2791 197.183 21.037 199.383C18.7681 201.64 16.9752 204.329 15.7652 207.292C14.4316 210.592 13.7703 214.124 13.8203 217.682C13.763 221.251 14.4212 224.795 15.7562 228.105C16.9662 231.068 18.7586 233.758 21.0279 236.015C23.2705 238.224 25.9374 239.956 28.8679 241.106C31.9315 242.311 35.1981 242.919 38.4904 242.897C42.2739 242.973 46.0181 242.117 49.3919 240.403C52.6705 238.643 55.5463 236.22 57.8371 233.288L67.6643 242.589ZM74.0108 254.362V181.068H87.4112V254.362H74.0108ZM120.075 202.565C123.739 202.522 127.375 203.2 130.777 204.561C133.909 205.826 136.757 207.706 139.152 210.089C141.55 212.501 143.435 215.374 144.694 218.534C146.051 221.953 146.729 225.604 146.69 229.282C146.729 232.961 146.051 236.612 144.694 240.031C143.44 243.19 141.559 246.062 139.166 248.476C136.771 250.859 133.923 252.738 130.79 254.003C127.389 255.364 123.753 256.043 120.089 255.999C116.425 256.043 112.789 255.364 109.387 254.003C106.255 252.738 103.407 250.859 101.012 248.476C98.6086 246.065 96.7188 243.192 95.4562 240.031C94.0984 236.612 93.4204 232.961 93.46 229.282C93.4204 225.604 94.0984 221.953 95.4562 218.534C96.7106 215.375 98.5905 212.502 100.984 210.089C103.379 207.706 106.227 205.826 109.359 204.561C112.765 203.198 116.407 202.52 120.075 202.565ZM120.075 243.613C121.777 243.614 123.464 243.284 125.04 242.641C126.63 242.007 128.075 241.057 129.287 239.849C130.555 238.561 131.548 237.028 132.205 235.345C132.95 233.417 133.315 231.363 133.28 229.296C133.315 227.23 132.95 225.175 132.205 223.248C131.548 221.564 130.555 220.032 129.287 218.743C128.077 217.527 126.632 216.569 125.04 215.928C123.464 215.284 121.777 214.952 120.075 214.951C118.355 214.941 116.65 215.271 115.059 215.924C113.49 216.575 112.067 217.532 110.871 218.739C109.604 220.027 108.611 221.559 107.954 223.243C107.209 225.171 106.844 227.225 106.879 229.292C106.844 231.358 107.209 233.412 107.954 235.341C108.611 237.024 109.604 238.556 110.871 239.844C112.069 241.043 113.492 241.992 115.059 242.636C116.65 243.29 118.355 243.622 120.075 243.613ZM187.431 247.801H186.612C185.055 250.319 182.867 252.386 180.265 253.799C177.469 255.298 174.336 256.056 171.164 255.999C168.509 256.204 165.842 255.784 163.379 254.773C160.915 253.761 158.722 252.186 156.977 250.174C153.682 245.677 152.039 240.182 152.325 234.615V204.203H165.734V232.958C165.5 235.844 166.359 238.712 168.14 240.994C169.055 241.903 170.155 242.606 171.364 243.056C172.573 243.506 173.864 243.693 175.152 243.604C176.843 243.641 178.515 243.239 180.005 242.436C181.411 241.645 182.632 240.563 183.588 239.263C184.619 237.844 185.383 236.248 185.84 234.554C186.363 232.671 186.623 230.725 186.612 228.77V204.203H200.012V254.362H187.449L187.431 247.801ZM246.29 248.313H245.471C244.072 250.597 242.095 252.472 239.739 253.747C236.788 255.336 233.467 256.113 230.117 255.999C226.952 256.01 223.824 255.329 220.95 254.003C218.056 252.677 215.449 250.8 213.273 248.476C210.995 246.022 209.207 243.156 208.006 240.031C206.682 236.604 206.022 232.956 206.061 229.282C206.022 225.609 206.682 221.961 208.006 218.534C209.209 215.408 210.998 212.542 213.278 210.089C215.453 207.77 218.06 205.897 220.95 204.575C223.823 203.25 226.949 202.569 230.112 202.579C233.463 202.465 236.783 203.242 239.735 204.831C242.089 206.1 244.068 207.966 245.471 210.243H246.29L245.471 203.077V181.068H258.881V254.362H246.29V248.313ZM232.881 243.613C234.617 243.621 236.338 243.29 237.948 242.641C239.538 242.007 240.983 241.057 242.196 239.849C243.468 238.554 244.476 237.025 245.164 235.345C245.944 233.425 246.327 231.368 246.29 229.296C246.327 227.224 245.944 225.167 245.164 223.248C244.476 221.568 243.468 220.038 242.196 218.743C240.985 217.527 239.54 216.569 237.948 215.928C236.338 215.279 234.617 214.948 232.881 214.956C231.14 214.949 229.415 215.297 227.814 215.98C226.226 216.651 224.783 217.625 223.566 218.846C222.293 220.14 221.285 221.67 220.597 223.35C219.825 225.233 219.442 227.252 219.471 229.287C219.442 231.321 219.825 233.341 220.597 235.224C221.285 236.904 222.293 238.433 223.566 239.728C224.783 240.949 226.226 241.922 227.814 242.594C229.416 243.275 231.14 243.622 232.881 243.613ZM269.937 181.068H316.41V194.171H283.765V211.983H313.144V225.085H283.765V254.362H269.946L269.937 181.068ZM356.026 247.81H355.208C353.648 250.325 351.46 252.389 348.858 253.799C346.063 255.3 342.927 256.057 339.747 255.999C337.094 256.203 334.432 255.782 331.968 254.77C329.507 253.759 327.316 252.184 325.572 250.174C322.277 245.677 320.633 240.182 320.919 234.615V204.203H334.328V232.958C334.096 235.844 334.953 238.712 336.736 240.994C337.65 241.903 338.748 242.606 339.959 243.056C341.169 243.506 342.457 243.693 343.745 243.604C345.442 243.64 347.118 243.234 348.608 242.427C350.013 241.636 351.236 240.554 352.192 239.254C353.222 237.835 353.989 236.239 354.445 234.545C354.962 232.664 355.221 230.721 355.208 228.77V204.203H368.618V254.362H356.026V247.81ZM377.112 243.306L402.704 215.668H377.931V204.203H419.164V215.277L393.576 242.915H419.573V254.362H377.095L377.112 243.306ZM473.027 242.282C470.77 246.312 467.552 249.722 463.662 252.212C459.338 254.845 454.341 256.161 449.279 255.999C445.652 256.036 442.051 255.358 438.686 254.003C435.525 252.726 432.651 250.827 430.239 248.42C427.831 246.006 425.936 243.135 424.656 239.975C423.295 236.573 422.619 232.937 422.662 229.273C422.645 225.755 423.308 222.267 424.609 218.999C425.854 215.843 427.693 212.958 430.037 210.503C432.384 208.061 435.18 206.097 438.277 204.719C441.577 203.259 445.157 202.526 448.766 202.57C452.45 202.504 456.102 203.183 459.514 204.566C462.521 205.802 465.213 207.69 467.397 210.094C469.555 212.516 471.192 215.353 472.209 218.432C473.325 221.798 473.88 225.326 473.846 228.873V230.101C473.781 230.473 473.747 230.85 473.747 231.227C473.674 231.598 473.639 231.975 473.643 232.353H435.869C436.08 234.2 436.653 235.987 437.558 237.611C438.372 239.031 439.449 240.282 440.733 241.296C441.965 242.27 443.373 243 444.877 243.446C446.371 243.889 447.926 244.113 449.486 244.111C452.182 244.217 454.845 243.484 457.11 242.013C459.088 240.653 460.72 238.847 461.87 236.741L473.027 242.282ZM460.845 222.833C460.738 221.8 460.44 220.794 459.975 219.865C459.419 218.712 458.657 217.671 457.726 216.794C456.654 215.786 455.405 214.988 454.039 214.439C452.359 213.784 450.571 213.467 448.766 213.509C446.04 213.464 443.373 214.328 441.194 215.965C438.949 217.688 437.334 220.097 436.584 222.824L460.845 222.833Z" fill="#0129AC"/>
</g>
</svg>
